# xmcd
#
# Track frame offsets: 
#        150
#        17909
#        33284
#        74409
#        105528
#        134366
#        169185
#
# Disc length: 2657 seconds
#
# Revision: 1
# Processed by: cddbd v1.5.1PL2 Copyright (c) Steve Scherf et al.
# Submitted via: ExactAudioCopy v0.95b4
#
DISCID=5a0a5f07
DTITLE=Alaska - 1995-03-10 - 15 Mile House - Owings Mills MD - Disc 2
DYEAR=1995
DGENRE=Progressive Rock
TTITLE0=What's Wrong
TTITLE1=Righteous
TTITLE2=I Shot The Sheriff
TTITLE3=Suite Madame Blue
TTITLE4=Cliffs Of Dover
TTITLE5=Sold Me Out Again
TTITLE6=Hocus Pocus
EXTD=
EXTT0=
EXTT1=
EXTT2=
EXTT3=
EXTT4=
EXTT5=
EXTT6=
PLAYORDER=
